# AST/ASF file generated using VICON BodyLanguage
# -----------------------------------------------
:version 1.10
:name VICON
:units
  mass 1.0
  length 0.45
  angle deg
:documentation
   .ast/.asf automatically generated from VICON data using
   VICON BodyBuilder and BodyLanguage model FoxedUp or BRILLIANT.MOD
:root
   order TX TY TZ RX RY RZ
   axis XYZ
   position 0 0 0  
   orientation 0 0 0 
:bonedata
  begin
     id 1 
     name lhipjoint
     direction 0.716712 -0.619771 0.3197 
     length 2.67249 
     axis 0 0 0  XYZ
  end
  begin
     id 2 
     name lfemur
     direction 0.34202 -0.939693 0  
     length 7.04375  
     axis 0 0 20  XYZ
    dof rx ry rz
    limits (-160.0 20.0)
           (-70.0 70.0)
           (-60.0 70.0)
  end
  begin
     id 3 
     name ltibia
     direction 0.34202 -0.939693 0   
     length 8.12233   
     axis 0 0 20   XYZ
    dof rx
    limits (-10.0 170.0)
  end
  begin
     id 4 
     name lfoot
     direction 0.0986665 -0.271084 0.957485   
     length 1.97802   
     axis -90 7.62852e-016 20   XYZ
    dof rx rz
    limits (-45.0 90.0)
           (-70.0 20.0)
  end
  begin
     id 5 
     name ltoes
     direction 1.53569e-011 -4.21962e-011 1   
     length 0.991074   
     axis -90 7.62852e-016 20   XYZ
    dof rx
    limits (-90.0 20.0)
  end
  begin
     id 6 
     name rhipjoint
     direction -0.684484 -0.647907 0.334213   
     length 2.55643  
     axis 0 0 0  XYZ 
  end
  begin
     id 7 
     name rfemur
     direction -0.34202 -0.939693 0   
     length 7.00452   
     axis 0 0 -20   XYZ
    dof rx ry rz
    limits (-160.0 20.0)
           (-70.0 70.0)
           (-70.0 60.0)
  end
  begin
     id 8 
     name rtibia
     direction -0.34202 -0.939693 0   
     length 7.98545   
     axis 0 0 -20   XYZ
    dof rx
    limits (-10.0 170.0)
 end
 begin
     id 9 
     name rfoot
     direction -0.0877828 -0.241181 0.966502   
     length 2.17223  
     axis -90 -7.62852e-016 -20   XYZ
    dof rx rz
    limits (-45.0 90.0)
           (-20.0 70.0)
  end
  begin
     id 10 
     name rtoes
     direction -1.53586e-011 -4.22014e-011 1   
     length 1.0886   
     axis -90 -7.62852e-016 -20   XYZ
    dof rx
    limits (-90.0 20.0)
  end
  begin
     id 11 
     name lowerback
     direction -0.0470064 0.989573 -0.136149   
     length 2.05976   
     axis 0 0 0   XYZ
    dof rx ry rz
    limits (-20.0 45.0)
           (-30.0 30.0)
           (-30.0 30.0)
  end
  begin
     id 12 
     name upperback
     direction -0.00532895 0.998093 0.0615045   
     length 2.02286   
     axis 0 0 0   XYZ
    dof rx ry rz
    limits (-20.0 45.0)
           (-30.0 30.0)
           (-30.0 30.0)
  end
  begin
     id 13 
     name thorax
     direction 0.0171558 0.991502 0.128954   
     length 2.09196   
     axis 0 0 0   XYZ
    dof rx ry rz
    limits (-20.0 45.0)
           (-30.0 30.0)
           (-30.0 30.0)
  end
  begin
     id 14 
     name lowerneck
     direction 0.0221176 0.995362 0.0936194   
     length 1.70234   
     axis 0 0 0   XYZ
    dof rx ry rz
    limits (-20.0 45.0)
           (-30.0 30.0)
           (-30.0 30.0)
  end
  begin
     id 15 
     name upperneck
     direction -0.0237973 0.998511 -0.0490877   
     length 1.66068   
     axis 0 0 0   XYZ
    dof rx ry rz
    limits (-20.0 45.0)
           (-30.0 30.0)
           (-30.0 30.0)
  end
  begin
     id 16
     name head
     direction -0.00980141 0.999531 -0.0289958  
     length 1.82618  
     axis 0 0 0   XYZ
    dof rx ry rz
    limits (-20.0 45.0)
           (-30.0 30.0)
           (-30.0 30.0)
  end
  begin
     id 17 
     name lclavicle
     direction 0.894784 0.445864 -0.0238113  
     length 3.37997  
     axis 0 0 0   XYZ
    dof ry rz
    limits (-20.0 10.0)
           (0.0 20.0)
  end
  begin
     id 18 
     name lhumerus
     direction 1 -4.48975e-011 6.49229e-028   
     length 5.79016   
     axis 180 -30 -90   XYZ
    dof rx ry rz
    limits (-60.0 90.0)
           (-90.0 90.0)
           (-90.0 90.0)
  end
  begin
     id 19
     name lradius
     direction 1 -4.48959e-011 2.80427e-027   
     length 3.48314   
     axis 180 -30 -90   XYZ
    dof rx
    limits (-10.0 170.0)
  end
  begin
     id 20
     name lwrist
     direction 1 -4.48938e-011 5.60449e-029   
     length 1.74157   
     axis 8.48505e-016 90 90   XYZ
    dof ry
    limits (-180.0 0.0)
 end
  begin
     id 21 
     name lhand
     direction 1 -4.49048e-011 1.1209e-028   
     length 0.587065   
     axis -7.15228e-017 90 90   XYZ
    dof rx rz
    limits (-90.0 90.0)
           (-45.0 45.0)
  end
  begin
     id 22 
     name lfingers
     direction 1 -4.49036e-011 2.24179e-028   
     length 0.473307   
     axis -1.43046e-016 90 90   XYZ
    dof rx
    limits (0.0 90.0)
  end
  begin
     id 23
     name lthumb
     direction 0.707107 -6.34878e-011 0.707107   
     length 0.679577   
     axis -90 45 2.85299e-015   XYZ
    dof rx rz
    limits (-45.0 45.0)
           (-45.0 45.0)
  end
  begin
     id 24 
     name rclavicle
     direction -0.952963 0.303049 0.00480459   
     length 3.50503  
     axis 0 0 0   XYZ 
    dof ry rz
    limits (-10.0 20.0)
           (-20.0 0.0)
  end
  begin
     id 25 
     name rhumerus
     direction -1 -4.48973e-011 -1.5431e-027  
     length 5.69822   
     axis 180 30 90   XYZ
    dof rx ry rz
    limits (-90.0 60.0)
           (-90.0 90.0)
           (-90.0 90.0)
  end
  begin
     id 26 
     name rradius
     direction -1 -4.4896e-011 2.11972e-027   
     length 3.58077   
     axis 180 30 90   XYZ
    dof rx
    limits (-10.0 170.0)
  end
  begin
     id 27 
     name rwrist
     direction -1 -4.48943e-011 5.60449e-029   
     length 1.79039   
     axis 8.48505e-016 -90 -90   XYZ
    dof ry
    limits (-180.0 0.0)
  end
  begin
     id 28
     name rhand
     direction -1 -4.49007e-011 1.1209e-028   
     length 0.620156   
     axis -7.15228e-017 -90 -90   XYZ
    dof rx rz
    limits (-90.0 90.0)
           (-45.0 45.0)
  end
  begin
     id 29
     name rfingers
     direction -1 -4.49025e-011 2.24179e-028   
     length 0.499985   
     axis -1.43046e-016 -90 -90   XYZ
    dof rx
    limits (0.0 90.0)
  end
  begin
     id 30
     name rthumb
     direction -0.707107 -6.3481e-011 0.707107   
     length 0.717882   
     axis -90 -45 -2.85299e-015   XYZ
    dof rx rz
    limits (-45.0 45.0)
           (-45.0 45.0)
  end
:hierarchy
  begin
    root lhipjoint rhipjoint lowerback
    lhipjoint lfemur
    lfemur ltibia
    ltibia lfoot
    lfoot ltoes
    rhipjoint rfemur
    rfemur rtibia
    rtibia rfoot
    rfoot rtoes
    lowerback upperback
    upperback thorax
    thorax lowerneck lclavicle rclavicle
    lowerneck upperneck
    upperneck head
    lclavicle lhumerus
    lhumerus lradius
    lradius lwrist
    lwrist lhand lthumb
    lhand lfingers
    rclavicle rhumerus
    rhumerus rradius
    rradius rwrist
    rwrist rhand rthumb
    rhand rfingers
  end

#!OML:ASF H:\Terrain\Patient Classification 1\PaulMetrics\March17Take4\PaulMetrics.ASF
:FULLY-SPECIFIED
:DEGREES
289
root 7.59747 17.766 22.7446 0.624268 74.0173 -5.91234
lowerback 1.2808 1.23061 -6.70557
upperback -2.91902 1.41554 -1.93293
thorax -3.85924 0.892379 1.68413
lowerneck 3.21991 15.4866 11.2077
upperneck 9.16472 22.6027 -13.2431
head 5.01843 11.2524 -4.51838
rclavicle 1.5207e-014 -6.04305e-014
rhumerus -52.0133 6.16027 -88.1092
rradius 34.8561
rwrist -7.38889
rhand -14.4479 -31.4756
rfingers 7.12502
rthumb 11.6972 -61.129
lclavicle 1.5207e-014 -6.04305e-014
lhumerus -43.3741 -25.9182 88.2701
lradius 69.2778
lwrist 26.3259
lhand -12.5708 -21.3252
lfingers 7.12502
lthumb 13.5069 8.21675
rfemur -35.2951 12.6343 7.84976
rtibia 34.4728
rfoot -14.9212 0.790981
rtoes 7.02712
lfemur -8.08971 -15.1017 -30.3241
ltibia 26.0349
lfoot -16.4736 -4.34851
ltoes 28.1784
290
root 7.68553 17.7831 22.8077 0.0683806 75.1558 -6.76248
lowerback 1.05225 1.08085 -6.74741
upperback -2.96723 1.23761 -1.74508
thorax -3.7711 0.806767 1.91491
lowerneck 3.13771 15.5502 12.3899
upperneck 9.57878 22.953 -14.4114
head 5.47934 11.414 -4.93074
rclavicle 9.88954e-015 -2.38542e-014
rhumerus -51.9855 6.4872 -88.0384
rradius 34.6082
rwrist -7.14577
rhand -14.3253 -31.5937
rfingers 7.12502
rthumb 11.8154 -61.2403
lclavicle 9.88954e-015 -2.38542e-014
lhumerus -43.3362 -25.079 88.0448
lradius 69.2403
lwrist 26.1332
lhand -13.128 -20.5414
lfingers 7.12502
lthumb 12.9698 9.03545
rfemur -35.5347 14.4529 6.94892
rtibia 33.3589
rfoot -12.4273 0.781242
rtoes -1.08248
lfemur -7.70924 -15.245 -29.893
ltibia 25.4535
lfoot -16.0879 -5.45883
ltoes 28.4847
291
root 7.77195 17.789 22.8735 0.896289 76.4453 -6.15553
lowerback 0.869947 0.845296 -7.18031
upperback -2.97167 0.932508 -1.63988
thorax -3.65888 0.66705 2.28184
lowerneck 3.60469 15.8714 10.7695
upperneck 8.58304 23.1177 -13.4701
head 4.82011 11.5174 -4.52724
rclavicle -1.41634e-014 0
rhumerus -51.8626 6.93935 -87.9418
rradius 34.3664
rwrist -6.8801
rhand -14.0195 -31.5697
rfingers 7.12502
rthumb 12.1103 -61.1993
lclavicle -1.41634e-014 0
lhumerus -43.2453 -24.0262 87.7527
lradius 69.2434
lwrist 25.8703
lhand -13.3683 -19.926
lfingers 7.12502
lthumb 12.7381 9.66542
rfemur -35.7733 15.8917 5.6923
rtibia 32.4244
rfoot -12.1844 0.409867
rtoes -8.28501
lfemur -7.3296 -15.5756 -29.9076
ltibia 24.8831
lfoot -15.8549 -6.38359
ltoes 28.2274
292
root 7.85605 17.7871 22.9413 0.234707 77.7692 -6.65541
lowerback 1.0515 0.692314 -7.27822
upperback -2.76802 0.719546 -1.49529
thorax -3.53312 0.555556 2.4959
lowerneck 3.39333 16.1568 10.0435
upperneck 8.42663 23.4188 -13.1663
head 4.72367 11.6472 -4.31061
rclavicle 3.598e-014 -2.06736e-014
rhumerus -51.6021 7.25631 -87.7487
rradius 34.2574
rwrist -6.78599
rhand -14.07 -31.5539
rfingers 7.12502
rthumb 12.0616 -61.1863
lclavicle 3.598e-014 -2.06736e-014
lhumerus -42.9916 -22.9028 87.5543
lradius 68.9597
lwrist 25.6232
lhand -13.434 -20.328
lfingers 7.12502
lthumb 12.6748 9.26737
rfemur -35.5317 17.3289 4.93406
rtibia 31.7558
rfoot -12.5327 0.158242
rtoes -9.90438
lfemur -6.40042 -16.0031 -29.7682
ltibia 24.1983
lfoot -15.7466 -7.06002
ltoes 28.3808
293
root 7.94101 17.7995 22.9972 -1.71404 79.0634 -8.49683
lowerback 1.27925 0.592368 -7.02443
upperback -2.61556 0.580411 -1.31062
thorax -3.48701 0.474741 2.55151
lowerneck 2.94467 16.4489 9.7221
upperneck 8.63447 23.8181 -13.1189
head 4.86427 11.8104 -4.16534
rclavicle -1.90336e-014 1.59028e-014
rhumerus -51.4485 7.39955 -87.4926
rradius 34.2692
rwrist -6.75307
rhand -14.299 -31.6112
rfingers 7.12502
rthumb 11.8408 -61.2565
lclavicle -1.90336e-014 1.59028e-014
lhumerus -42.8586 -22.168 87.356
lradius 68.7525
lwrist 25.4845
lhand -13.5153 -20.8779
lfingers 7.12502
lthumb 12.5964 8.72238
rfemur -35.3728 18.5561 4.57472
rtibia 31.3034
rfoot -12.2475 -0.298132
rtoes -8.21751
lfemur -5.53671 -16.2627 -29.3384
ltibia 23.5355
lfoot -15.4618 -8.10847
ltoes 29.905
294
root 8.02924 17.8259 23.0478 -1.4413 80.3725 -8.45462
lowerback 1.13188 0.448824 -7.2126
upperback -2.62869 0.399596 -1.22041
thorax -3.40313 0.389181 2.75908
lowerneck 2.69734 16.7153 9.28186
upperneck 8.71884 24.1572 -12.92
head 4.89314 11.9579 -3.99604
rclavicle 6.26172e-015 0
rhumerus -51.4298 7.59622 -87.3204
rradius 34.319
rwrist -6.84386
rhand -14.0003 -31.8819
rfingers 7.12502
rthumb 12.1289 -61.5103
lclavicle 6.26172e-015 0
lhumerus -42.3371 -21.9449 86.864
lradius 68.3398
lwrist 25.5895
lhand -13.58 -20.857
lfingers 7.12502
lthumb 12.5341 8.74704
rfemur -35.8024 19.3791 3.72849
rtibia 30.9631
rfoot -11.8904 -0.624188
rtoes -4.15673
lfemur -5.24955 -16.2988 -29.1928
ltibia 23.1177
lfoot -15.0866 -9.39853
ltoes 30.2685
